<svg width="28" height="28" viewBox="0 0 28 28" fill="none" xmlns="http://www.w3.org/2000/svg">
<path d="M22.1667 23.3333C22.1667 24.6283 21.1284 25.6667 19.8334 25.6667C19.2146 25.6667 18.6211 25.4208 18.1835 24.9832C17.7459 24.5457 17.5001 23.9522 17.5001 23.3333C17.5001 22.0383 18.5384 21 19.8334 21C20.4523 21 21.0457 21.2458 21.4833 21.6834C21.9209 22.121 22.1667 22.7145 22.1667 23.3333ZM8.16675 21C6.87175 21 5.83342 22.0383 5.83342 23.3333C5.83342 23.9522 6.07925 24.5457 6.51683 24.9832C6.95442 25.4208 7.54791 25.6667 8.16675 25.6667C9.46175 25.6667 10.5001 24.6283 10.5001 23.3333C10.5001 22.0383 9.46175 21 8.16675 21ZM8.40008 17.0683L8.36508 17.2083C8.36508 17.3717 8.49342 17.5 8.65675 17.5H22.1667V19.8333H8.16675C7.54791 19.8333 6.95442 19.5875 6.51683 19.1499C6.07925 18.7123 5.83342 18.1188 5.83342 17.5C5.83342 17.0917 5.93841 16.7067 6.11341 16.38L7.70008 13.5217L3.50008 4.66666H1.16675V2.33333H4.98175L6.07841 4.66666H23.3334C23.9751 4.66666 24.5001 5.19166 24.5001 5.83333C24.5001 6.03166 24.4417 6.23 24.3601 6.41666L20.1834 13.965C19.7867 14.6767 19.0168 15.1667 18.1418 15.1667H9.45008L8.40008 17.0683ZM9.91675 12.8333H11.6667V10.5H8.82008L9.91675 12.8333ZM12.8334 10.5V12.8333H16.3334V10.5H12.8334ZM16.3334 9.33333V7H12.8334V9.33333H16.3334ZM19.9618 10.5H17.5001V12.8333H18.6667L19.9618 10.5ZM21.9101 7H17.5001V9.33333H20.6151L21.9101 7ZM7.16341 7L8.26008 9.33333H11.6667V7H7.16341Z" fill="#029EC3"/>
</svg>
