<svg width="31" height="31" viewBox="0 0 31 31" fill="none" xmlns="http://www.w3.org/2000/svg">
<path d="M15.2883 11.2412C13.1312 11.2412 11.3708 13.0193 11.3708 15.1981C11.3708 17.3769 13.1312 19.155 15.2883 19.155C17.4454 19.155 19.2058 17.3769 19.2058 15.1981C19.2058 13.0193 17.4454 11.2412 15.2883 11.2412ZM27.0379 15.1981C27.0379 13.5596 27.0526 11.9358 26.9615 10.3003C26.8704 8.40047 26.4413 6.71442 25.0659 5.3252C23.6876 3.93302 22.0213 3.5026 20.1404 3.41058C18.5181 3.31856 16.9106 3.3334 15.2912 3.3334C13.669 3.3334 12.0614 3.31856 10.4421 3.41058C8.56123 3.5026 6.89195 3.93599 5.51656 5.3252C4.13823 6.71738 3.71209 8.40047 3.62099 10.3003C3.52988 11.9388 3.54458 13.5625 3.54458 15.1981C3.54458 16.8337 3.52988 18.4604 3.62099 20.096C3.71209 21.9958 4.14117 23.6818 5.51656 25.071C6.89489 26.4632 8.56123 26.8936 10.4421 26.9857C12.0644 27.0777 13.6719 27.0628 15.2912 27.0628C16.9135 27.0628 18.5211 27.0777 20.1404 26.9857C22.0213 26.8936 23.6905 26.4603 25.0659 25.071C26.4443 23.6789 26.8704 21.9958 26.9615 20.096C27.0555 18.4604 27.0379 16.8367 27.0379 15.1981V15.1981ZM15.2883 21.2863C11.9527 21.2863 9.26068 18.5673 9.26068 15.1981C9.26068 11.829 11.9527 9.10992 15.2883 9.10992C18.6239 9.10992 21.3159 11.829 21.3159 15.1981C21.3159 18.5673 18.6239 21.2863 15.2883 21.2863ZM21.5628 10.2824C20.784 10.2824 20.1551 9.6472 20.1551 8.86057C20.1551 8.07395 20.784 7.43871 21.5628 7.43871C22.3416 7.43871 22.9705 8.07395 22.9705 8.86057C22.9707 9.04736 22.9345 9.23236 22.8638 9.40498C22.7932 9.57759 22.6895 9.73443 22.5587 9.86651C22.428 9.99859 22.2727 10.1033 22.1018 10.1747C21.9309 10.2461 21.7477 10.2827 21.5628 10.2824V10.2824Z" fill="black"/>
</svg>
