<svg width="61" height="61" viewBox="0 0 61 61" fill="none" xmlns="http://www.w3.org/2000/svg">
<path d="M10.335 30.5H9.17334L30.4995 51.8262L48.0132 34.3125H53.4043L30.4995 57.2173L4.73535 31.4829C4.04036 30.7879 3.4248 30.0433 2.88867 29.249C2.35254 28.4548 1.8859 27.6009 1.48877 26.6875H8.72656L17.1558 18.2881L30.4995 31.6021L40.0308 22.1006L44.6475 26.6875H55.2212C55.8566 25.6748 56.3431 24.6026 56.6807 23.4707C57.0182 22.3389 57.187 21.1773 57.187 19.9859C57.187 18.2583 56.8693 16.6499 56.2339 15.1607C55.5985 13.6714 54.7148 12.3807 53.583 11.2886C52.4512 10.1965 51.1406 9.3327 49.6514 8.69728C48.1621 8.06186 46.5438 7.74416 44.7964 7.74416C43.1284 7.74416 41.6491 8.00229 40.3584 8.51857C39.0677 9.03485 37.8763 9.72983 36.7842 10.6035C35.6921 11.4772 34.6496 12.4403 33.6567 13.4927C32.6639 14.5451 31.6115 15.6471 30.4995 16.7988C29.4272 15.7266 28.3848 14.6444 27.3721 13.5523C26.3594 12.4601 25.307 11.4772 24.2148 10.6035C23.1227 9.72983 21.9214 9.01499 20.6108 8.459C19.3003 7.90301 17.8309 7.62501 16.2026 7.62501C14.495 7.62501 12.8965 7.94272 11.4072 8.57814C9.91797 9.21356 8.60742 10.0972 7.47559 11.229C6.34375 12.3609 5.46012 13.6714 4.82471 15.1607C4.18929 16.6499 3.86165 18.2583 3.8418 19.9859C3.8418 20.9191 3.95101 21.8822 4.16943 22.875H0.267578C0.168294 22.3985 0.108724 21.9219 0.0888672 21.4453C0.0690104 20.9688 0.0491536 20.4922 0.0292969 20.0156C0.0292969 17.7718 0.446289 15.667 1.28027 13.7012C2.11426 11.7354 3.26595 10.0178 4.73535 8.54835C6.20475 7.07895 7.92236 5.92726 9.88818 5.09328C11.854 4.25929 13.9588 3.83237 16.2026 3.81251C17.8507 3.81251 19.3201 4.00115 20.6108 4.37843C21.9015 4.75571 23.0929 5.27199 24.1851 5.92726C25.2772 6.58253 26.3296 7.38673 27.3423 8.33986C28.355 9.29298 29.4074 10.3156 30.4995 11.4077C31.5916 10.2958 32.6341 9.27313 33.627 8.33986C34.6198 7.40659 35.6722 6.61232 36.7842 5.95705C37.8962 5.30177 39.0975 4.77557 40.3882 4.37843C41.6789 3.9813 43.1483 3.79266 44.7964 3.81251C47.0203 3.81251 49.1152 4.22951 51.0811 5.06349C53.0469 5.89748 54.7546 7.04917 56.2041 8.51857C57.6536 9.98797 58.8053 11.6957 59.6592 13.6416C60.513 15.5876 60.9399 17.6825 60.9399 19.9263C60.9399 21.8524 60.6024 23.7189 59.9272 25.5259C59.2521 27.3329 58.2891 28.9909 57.0381 30.5H43.0391L40.0308 27.4619L30.4995 37.023L17.1558 23.6494L10.335 30.5Z" fill="black"/>
</svg>
