<svg width="45" height="45" viewBox="0 0 45 45" fill="none" xmlns="http://www.w3.org/2000/svg">
<path d="M29.0623 26.25H27.581L27.056 25.7438C28.2278 24.3825 29.0842 22.779 29.5639 21.048C30.0437 19.3171 30.1349 17.5016 29.831 15.7313C28.9498 10.5188 24.5998 6.35626 19.3498 5.71876C17.504 5.48526 15.6294 5.67709 13.8692 6.27956C12.109 6.88203 10.51 7.87917 9.19445 9.1947C7.87893 10.5102 6.88178 12.1093 6.27931 13.8694C5.67684 15.6296 5.48502 17.5043 5.71852 19.35C6.35602 24.6 10.5185 28.95 15.731 29.8313C17.5013 30.1351 19.3169 30.0439 21.0478 29.5642C22.7787 29.0844 24.3822 28.228 25.7435 27.0563L26.2498 27.5813V29.0625L34.2185 37.0313C34.9873 37.8 36.2435 37.8 37.0123 37.0313C37.781 36.2625 37.781 35.0063 37.0123 34.2375L29.0623 26.25ZM17.8123 26.25C13.1435 26.25 9.37477 22.4813 9.37477 17.8125C9.37477 13.1438 13.1435 9.37501 17.8123 9.37501C22.481 9.37501 26.2498 13.1438 26.2498 17.8125C26.2498 22.4813 22.481 26.25 17.8123 26.25Z" fill="black"/>
</svg>
