<svg width="57" height="51" viewBox="0 0 57 51" fill="none" xmlns="http://www.w3.org/2000/svg">
<path d="M50.4463 15.4736H6.15254C3.85916 15.4736 2 17.2056 2 19.3421V45.1315C2 47.268 3.85916 48.9999 6.15254 48.9999H50.4463C52.7397 48.9999 54.5989 47.268 54.5989 45.1315V19.3421C54.5989 17.2056 52.7397 15.4736 50.4463 15.4736Z" stroke="black" stroke-width="4" stroke-linejoin="round"/>
<path d="M21.3799 5.15789H35.2217V0H21.3799V5.15789ZM36.6059 6.44737V15.4737H42.1426V6.44737H36.6059ZM19.9957 15.4737V6.44737H14.459V15.4737H19.9957ZM35.2217 5.15789C35.5888 5.15789 35.9409 5.29375 36.2005 5.53557C36.46 5.77739 36.6059 6.10538 36.6059 6.44737H42.1426C42.1426 4.73742 41.4134 3.09751 40.1155 1.88839C38.8176 0.679274 37.0572 0 35.2217 0V5.15789ZM21.3799 0C19.5443 0 17.784 0.679274 16.4861 1.88839C15.1881 3.09751 14.459 4.73742 14.459 6.44737H19.9957C19.9957 6.10538 20.1415 5.77739 20.4011 5.53557C20.6607 5.29375 21.0128 5.15789 21.3799 5.15789V0Z" fill="black"/>
<path d="M19.9941 32.237H36.6043M28.2992 24.5001V39.9738" stroke="black" stroke-width="4" stroke-linecap="round" stroke-linejoin="round"/>
</svg>
