<svg width="68" height="68" viewBox="0 0 68 68" fill="none" xmlns="http://www.w3.org/2000/svg">
<path d="M46.2188 29.75C46.2188 30.1727 46.0508 30.5781 45.752 30.877C45.4531 31.1758 45.0477 31.3438 44.625 31.3438H23.375C22.9523 31.3438 22.5469 31.1758 22.248 30.877C21.9492 30.5781 21.7812 30.1727 21.7812 29.75C21.7812 29.3273 21.9492 28.9219 22.248 28.6231C22.5469 28.3242 22.9523 28.1563 23.375 28.1563H44.625C45.0477 28.1563 45.4531 28.3242 45.752 28.6231C46.0508 28.9219 46.2188 29.3273 46.2188 29.75V29.75ZM44.625 36.6563H23.375C22.9523 36.6563 22.5469 36.8242 22.248 37.1231C21.9492 37.4219 21.7812 37.8273 21.7812 38.25C21.7812 38.6727 21.9492 39.0781 22.248 39.377C22.5469 39.6758 22.9523 39.8438 23.375 39.8438H44.625C45.0477 39.8438 45.4531 39.6758 45.752 39.377C46.0508 39.0781 46.2188 38.6727 46.2188 38.25C46.2188 37.8273 46.0508 37.4219 45.752 37.1231C45.4531 36.8242 45.0477 36.6563 44.625 36.6563ZM67.4688 27.625V34C67.4617 36.1113 66.6199 38.1341 65.127 39.627C63.6341 41.1199 61.6113 41.9618 59.5 41.9688H57.7734C56.1266 45.8203 52.7797 49.1938 47.8656 51.9297C42.3406 54.9844 36.4438 56.3656 34.7438 56.7375L34 56.7906L33.2562 56.7375C31.5562 56.3656 25.6594 54.9844 20.1344 51.9297C15.2203 49.1938 11.8734 45.8203 10.2266 41.9688H8.5C6.38871 41.9618 4.36589 41.1199 2.87298 39.627C1.38006 38.1341 0.538253 36.1113 0.53125 34V27.625C0.538253 25.5137 1.38006 23.4909 2.87298 21.998C4.36589 20.5051 6.38871 19.6633 8.5 19.6563H9.16406C9.32327 19.0802 9.61524 18.5495 10.0166 18.1067C10.4179 17.6639 10.9174 17.3212 11.475 17.1063L32.725 9.40314C33.5454 9.08567 34.4546 9.08567 35.275 9.40314L56.525 17.1063C57.0826 17.3212 57.5821 17.6639 57.9834 18.1067C58.3848 18.5495 58.6767 19.0802 58.8359 19.6563H59.5C61.6113 19.6633 63.6341 20.5051 65.127 21.998C66.6199 23.4909 67.4617 25.5137 67.4688 27.625V27.625ZM9.27031 38.7813C9.11053 37.9049 9.03052 37.0158 9.03125 36.125V22.8438H8.5C7.23408 22.8507 6.022 23.3567 5.12685 24.2519C4.2317 25.147 3.72572 26.3591 3.71875 27.625V34C3.72572 35.2659 4.2317 36.478 5.12685 37.3732C6.022 38.2683 7.23408 38.7743 8.5 38.7813H9.27031ZM55.7812 36.125V20.6125C55.7791 20.5039 55.7453 20.3983 55.6839 20.3086C55.6226 20.219 55.5364 20.1492 55.4359 20.1078L34.1859 12.3781H33.8141L12.5641 20.1078C12.4636 20.1492 12.3774 20.219 12.3161 20.3086C12.2547 20.3983 12.2209 20.5039 12.2188 20.6125V36.125C12.2188 48.6891 31.6891 53.1516 33.8937 53.6031H34.1062C36.3109 53.1516 55.7812 48.6891 55.7812 36.125V36.125ZM64.2812 27.625C64.2743 26.3591 63.7683 25.147 62.8731 24.2519C61.978 23.3567 60.7659 22.8507 59.5 22.8438H58.9688V36.125C58.9695 37.0158 58.8895 37.9049 58.7297 38.7813H59.5C60.7659 38.7743 61.978 38.2683 62.8731 37.3732C63.7683 36.478 64.2743 35.2659 64.2812 34V27.625Z" fill="black"/>
</svg>
