<svg width="62" height="62" viewBox="0 0 62 62" fill="none" xmlns="http://www.w3.org/2000/svg">
<path d="M42.1406 30.4692C42.1406 30.9021 41.9875 31.3173 41.715 31.6234C41.4425 31.9295 41.0729 32.1015 40.6875 32.1015H21.3125C20.9271 32.1015 20.5575 31.9295 20.285 31.6234C20.0125 31.3173 19.8594 30.9021 19.8594 30.4692C19.8594 30.0363 20.0125 29.6211 20.285 29.315C20.5575 29.0089 20.9271 28.8369 21.3125 28.8369H40.6875C41.0729 28.8369 41.4425 29.0089 41.715 29.315C41.9875 29.6211 42.1406 30.0363 42.1406 30.4692V30.4692ZM40.6875 37.5424H21.3125C20.9271 37.5424 20.5575 37.7144 20.285 38.0205C20.0125 38.3266 19.8594 38.7418 19.8594 39.1747C19.8594 39.6076 20.0125 40.0228 20.285 40.3289C20.5575 40.635 20.9271 40.8069 21.3125 40.8069H40.6875C41.0729 40.8069 41.4425 40.635 41.715 40.3289C41.9875 40.0228 42.1406 39.6076 42.1406 39.1747C42.1406 38.7418 41.9875 38.3266 41.715 38.0205C41.4425 37.7144 41.0729 37.5424 40.6875 37.5424ZM61.5156 28.2928V34.8219C61.5092 36.9843 60.7417 39.056 59.3805 40.585C58.0193 42.114 56.175 42.9761 54.25 42.9833H52.6758C51.1742 46.928 48.1227 50.383 43.6422 53.1851C38.6047 56.3136 33.2281 57.7282 31.6781 58.1091L31 58.1635L30.3219 58.1091C28.7719 57.7282 23.3953 56.3136 18.3578 53.1851C13.8773 50.383 10.8258 46.928 9.32422 42.9833H7.75C5.825 42.9761 3.98067 42.114 2.61948 40.585C1.25829 39.056 0.49076 36.9843 0.484375 34.8219V28.2928C0.49076 26.1305 1.25829 24.0588 2.61948 22.5298C3.98067 21.0008 5.825 20.1386 7.75 20.1314H8.35547C8.50063 19.5415 8.76684 18.9979 9.13274 18.5444C9.49865 18.0909 9.95408 17.74 10.4625 17.5198L29.8375 9.63045C30.5855 9.30531 31.4145 9.30531 32.1625 9.63045L51.5375 17.5198C52.0459 17.74 52.5013 18.0909 52.8673 18.5444C53.2332 18.9979 53.4994 19.5415 53.6445 20.1314H54.25C56.175 20.1386 58.0193 21.0008 59.3805 22.5298C60.7417 24.0588 61.5092 26.1305 61.5156 28.2928V28.2928ZM8.45234 39.7188C8.30666 38.8212 8.23371 37.9107 8.23438 36.9983V23.396H7.75C6.59578 23.4031 5.49065 23.9213 4.67448 24.8381C3.85832 25.7549 3.39698 26.9963 3.39062 28.2928V34.8219C3.39698 36.1184 3.85832 37.3598 4.67448 38.2766C5.49065 39.1934 6.59578 39.7116 7.75 39.7188H8.45234ZM50.8594 36.9983V21.1108C50.8574 20.9996 50.8266 20.8914 50.7706 20.7996C50.7147 20.7078 50.6361 20.6363 50.5445 20.5939L31.1695 12.6774H30.8305L11.4555 20.5939C11.3639 20.6363 11.2853 20.7078 11.2294 20.7996C11.1734 20.8914 11.1426 20.9996 11.1406 21.1108V36.9983C11.1406 49.8661 28.893 54.4365 30.9031 54.8989H31.0969C33.107 54.4365 50.8594 49.8661 50.8594 36.9983V36.9983ZM58.6094 28.2928C58.603 26.9963 58.1417 25.7549 57.3255 24.8381C56.5094 23.9213 55.4042 23.4031 54.25 23.396H53.7656V36.9983C53.7663 37.9107 53.6933 38.8212 53.5477 39.7188H54.25C55.4042 39.7116 56.5094 39.1934 57.3255 38.2766C58.1417 37.3598 58.603 36.1184 58.6094 34.8219V28.2928Z" fill="black"/>
</svg>
